<svg width="457" height="67" viewBox="0 0 457 67" fill="none" xmlns="http://www.w3.org/2000/svg">
<g clip-path="url(#clip0_164_550)">
<path d="M21.2273 14.0701C23.8999 12.3514 27.1201 11.4921 30.8825 11.4921C34.8914 11.4921 38.1281 12.4112 40.587 14.2495C42.7558 15.8703 44.2509 18.0893 45.0724 20.9066C45.275 21.6027 45.9322 22.0759 46.6606 22.0759H57.3619C58.4298 22.0759 59.2349 21.086 58.9994 20.0472C57.6193 14.0211 54.6838 9.26764 50.193 5.78683C45.2202 1.93076 38.84 0 31.0687 0C24.6282 0 19.0859 1.38688 14.4418 4.16065C9.79215 6.93441 6.22689 10.7959 3.73504 15.7398C1.24319 20.689 0 26.3888 0 32.8446C0 39.3004 1.24319 44.9839 3.73504 49.9006C6.22689 54.8172 9.79215 58.6461 14.4418 61.3926C19.0859 64.1392 24.6282 65.5098 31.0687 65.5098C38.8455 65.5098 45.2038 63.6225 50.1547 59.8535C54.5852 56.4815 57.4988 51.9292 58.8843 46.2131C59.1363 45.1688 58.3367 44.1572 57.2523 44.1572H46.5511C45.8281 44.1572 45.1819 44.6195 44.9683 45.3048C44.1468 47.9481 42.6682 50.0257 40.5378 51.5322C38.1061 53.2508 34.8914 54.1102 30.8825 54.1102C27.1146 54.1102 23.8999 53.2508 21.2273 51.5322C18.5547 49.8135 16.5065 47.3715 15.0771 44.2007C13.6477 41.0354 12.9357 37.25 12.9357 32.8446C12.9357 28.4392 13.6477 24.643 15.0771 21.445C16.501 18.247 18.5547 15.7887 21.2273 14.0701Z" fill="#413124"/>
<path d="M99.1693 21.445C95.4945 19.4544 91.3816 18.4591 86.8251 18.4591C82.2686 18.4591 78.2323 19.4544 74.5246 21.445C70.817 23.4356 67.887 26.193 65.7347 29.7228C63.5769 33.2525 62.498 37.337 62.498 41.9817C62.498 46.6264 63.5769 50.6402 65.7347 54.1972C67.8925 57.7595 70.806 60.5333 74.4808 62.5239C78.1556 64.5145 82.2686 65.5098 86.8251 65.5098C91.3816 65.5098 95.4945 64.5145 99.1693 62.5239C102.844 60.5333 105.758 57.7595 107.915 54.1972C110.073 50.6402 111.152 46.5666 111.152 41.9817C111.152 37.3968 110.073 33.2525 107.915 29.7228C105.758 26.193 102.844 23.4356 99.1693 21.445ZM96.5241 48.9488C95.5219 50.8197 94.1692 52.2229 92.4715 53.1583C90.7682 54.0938 88.8843 54.5616 86.8251 54.5616C84.7659 54.5616 82.8765 54.0938 81.1787 53.1583C79.4755 52.2229 78.1282 50.8197 77.126 48.9488C76.1238 47.0778 75.6254 44.7555 75.6254 41.9817C75.6254 39.208 76.1402 36.8095 77.1753 34.9712C78.2049 33.1329 79.5741 31.746 81.2773 30.8105C82.975 29.8751 84.859 29.4073 86.9237 29.4073C88.9883 29.4073 90.7628 29.8751 92.4331 30.8105C94.1035 31.746 95.4562 33.1492 96.4858 35.0201C97.5154 36.891 98.0357 39.2134 98.0357 41.9872C98.0357 44.7609 97.5318 47.0833 96.5351 48.9542L96.5241 48.9488Z" fill="#413124"/>
<path d="M143.948 18.4592C140.547 18.4592 137.584 19.1553 135.065 20.5422C133.882 21.1949 132.819 21.9509 131.872 22.8102C130.809 23.7783 129.101 23.006 129.101 21.5756V21.2057C129.101 20.292 128.35 19.5469 127.43 19.5469H118.016C117.096 19.5469 116.346 20.292 116.346 21.2057V62.7633C116.346 63.677 117.096 64.4221 118.016 64.4221H127.43C128.35 64.4221 129.101 63.677 129.101 62.7633V41.2584C129.101 37.4567 130.086 34.4872 132.064 32.3443C134.035 30.2069 136.543 29.13 139.577 29.13C142.798 29.13 145.147 30.109 146.637 32.0724C148.126 34.0303 148.871 36.853 148.871 40.5296V62.7578C148.871 63.6715 149.621 64.4166 150.542 64.4166H159.956C160.876 64.4166 161.626 63.6715 161.626 62.7578V39.3549C161.626 32.5999 160.109 27.4277 157.07 23.8381C154.03 20.2485 149.66 18.4537 143.948 18.4537V18.4592Z" fill="#413124"/>
<path d="M184.945 30.854C186.582 29.8315 188.406 29.3149 190.411 29.3149C192.656 29.3149 194.6 29.8914 196.243 31.0335C197.579 31.969 198.554 33.1655 199.168 34.6231C199.425 35.2431 200.028 35.6456 200.701 35.6456H210.849C211.956 35.6456 212.777 34.585 212.459 33.5353C211.129 29.1626 208.73 25.66 205.263 23.0277C201.254 19.982 196.336 18.4591 190.504 18.4591C185.827 18.4591 181.697 19.4707 178.116 21.4885C174.529 23.5117 171.724 26.2855 169.687 29.8098C167.65 33.3395 166.637 37.3968 166.637 41.9817C166.637 46.5666 167.655 50.6239 169.687 54.1536C171.719 57.6834 174.529 60.4572 178.116 62.4749C181.697 64.4927 185.827 65.5043 190.504 65.5043C196.336 65.5043 201.271 63.938 205.307 60.7998C208.779 58.1076 211.161 54.654 212.454 50.4444C212.783 49.3839 211.961 48.3124 210.844 48.3124H200.718C200.033 48.3124 199.42 48.7312 199.173 49.3621C198.565 50.9122 197.585 52.1467 196.238 53.0605C194.6 54.1754 192.651 54.7356 190.405 54.7356C188.401 54.7356 186.577 54.2243 184.94 53.1964C183.302 52.1739 182.01 50.6946 181.068 48.7638C180.126 46.8331 179.655 44.5706 179.655 41.9763C179.655 39.382 180.126 37.0596 181.068 35.1887C182.01 33.3178 183.302 31.8711 184.94 30.8431L184.945 30.854Z" fill="#413124"/>
<path d="M229.19 19.5414H219.776C218.853 19.5414 218.105 20.2841 218.105 21.2002V62.7577C218.105 63.6739 218.853 64.4165 219.776 64.4165H229.19C230.113 64.4165 230.86 63.6739 230.86 62.7577V21.2002C230.86 20.2841 230.113 19.5414 229.19 19.5414Z" fill="#413124"/>
<path d="M224.573 12.3948C227.842 12.3948 230.493 9.76246 230.493 6.51552C230.493 3.26859 227.842 0.63623 224.573 0.63623C221.303 0.63623 218.652 3.26859 218.652 6.51552C218.652 9.76246 221.303 12.3948 224.573 12.3948Z" fill="#413124"/>
<path d="M271.764 21.3525C268.302 19.4218 264.321 18.4591 259.83 18.4591C255.093 18.4591 250.931 19.487 247.349 21.5374C243.762 23.5879 240.985 26.4214 239.014 30.0437C237.037 33.6604 236.051 37.7939 236.051 42.4386C236.051 47.0833 237.053 50.9611 239.057 54.4256C241.062 57.8955 243.855 60.6094 247.437 62.5674C251.018 64.5253 255.148 65.5098 259.825 65.5098C263.467 65.5098 266.764 64.8299 269.71 63.4757C272.656 62.116 275.143 60.2777 277.18 57.9553C278.653 56.2748 279.814 54.4473 280.669 52.4676C281.145 51.3636 280.351 50.129 279.141 50.129H269.469C268.91 50.129 268.363 50.39 268.061 50.8578C267.311 52.0325 266.331 53.0115 265.115 53.7947C263.658 54.7301 261.867 55.1979 259.737 55.1979C257.607 55.1979 255.624 54.7301 253.954 53.7947C252.283 52.8592 250.98 51.5322 250.038 49.8135C249.277 48.4212 248.828 46.8331 248.68 45.0655H281.101C281.972 45.0655 282.722 44.402 282.766 43.5372C282.783 43.2761 282.788 43.0151 282.788 42.7595V40.7254C282.788 36.4451 281.813 32.6271 279.875 29.2822C277.93 25.932 275.225 23.2942 271.764 21.3634V21.3525ZM267.886 37.4567H248.97C249.222 36.2221 249.605 35.118 250.126 34.1553C251.128 32.317 252.497 30.9465 254.228 30.0382C255.958 29.1299 257.859 28.6785 259.923 28.6785C262.656 28.6785 264.951 29.478 266.802 31.077C268.138 32.23 269.042 33.655 269.507 35.3573C269.798 36.4124 268.987 37.4567 267.886 37.4567Z" fill="#413124"/>
<path d="M315.77 18.4591C312.369 18.4591 309.406 19.1552 306.887 20.5421C305.704 21.1947 304.642 21.9507 303.694 22.8101C302.632 23.7782 300.923 23.0058 300.923 21.5755V21.2056C300.923 20.2919 300.173 19.5468 299.253 19.5468H289.838C288.918 19.5468 288.168 20.2919 288.168 21.2056V62.7631C288.168 63.6768 288.918 64.422 289.838 64.422H299.253C300.173 64.422 300.923 63.6768 300.923 62.7631V41.2583C300.923 37.4566 301.909 34.4871 303.886 32.3442C305.857 30.2068 308.366 29.1299 311.4 29.1299C314.62 29.1299 316.969 30.1089 318.459 32.0723C319.949 34.0302 320.693 36.8529 320.693 40.5295V62.7577C320.693 63.6714 321.444 64.4165 322.364 64.4165H331.778C332.698 64.4165 333.448 63.6714 333.448 62.7577V39.3547C333.448 32.5998 331.931 27.4276 328.892 23.838C325.852 20.2484 321.482 18.4536 315.776 18.4536L315.77 18.4591Z" fill="#413124"/>
<path d="M356.767 30.854C358.405 29.8315 360.228 29.3149 362.233 29.3149C364.478 29.3149 366.422 29.8914 368.065 31.0335C369.402 31.969 370.377 33.1655 370.99 34.6231C371.247 35.2431 371.85 35.6456 372.523 35.6456H382.672C383.778 35.6456 384.599 34.585 384.282 33.5353C382.951 29.1626 380.552 25.66 377.085 23.0277C373.077 19.982 368.159 18.4591 362.326 18.4591C357.649 18.4591 353.52 19.4707 349.938 21.4885C346.351 23.5117 343.547 26.2855 341.509 29.8098C339.472 33.3395 338.459 37.3968 338.459 41.9817C338.459 46.5666 339.478 50.6239 341.509 54.1536C343.541 57.6834 346.351 60.4572 349.938 62.4749C353.52 64.4927 357.649 65.5043 362.326 65.5043C368.159 65.5043 373.093 63.938 377.129 60.7998C380.601 58.1076 382.984 54.654 384.276 50.4444C384.605 49.3839 383.783 48.3124 382.666 48.3124H372.545C371.861 48.3124 371.247 48.7312 371.001 49.3621C370.393 50.9122 369.413 52.1467 368.065 53.0605C366.428 54.1754 364.478 54.7356 362.233 54.7356C360.228 54.7356 358.405 54.2243 356.767 53.1964C355.13 52.1739 353.837 50.6946 352.895 48.7638C351.953 46.8331 351.482 44.5706 351.482 41.9763C351.482 39.382 351.953 37.0596 352.895 35.1887C353.837 33.3178 355.13 31.8711 356.767 30.8431V30.854Z" fill="#413124"/>
<path d="M437.718 15.8757H402.405C396.359 15.8757 391.457 20.7434 391.457 26.7477V67H405.559C404.628 66.1624 404.031 64.9713 404.031 63.6279V53.2889C404.031 51.2656 405.685 49.6231 407.722 49.6231C409.76 49.6231 411.414 51.2656 411.414 53.2889V67H436.716V49.0684C436.716 45.68 439.481 42.9389 442.888 42.9389H443.676C447.088 42.9389 449.848 45.6855 449.848 49.0684V57.2863C449.848 58.8799 448.551 60.1689 446.946 60.1689H443.676V67H449.936C453.841 67 457.012 63.8564 457.012 59.9731V35.0201C457.012 24.4417 448.381 15.8702 437.729 15.8702L437.718 15.8757ZM407.722 45.0818C405.997 45.0818 404.601 43.6949 404.601 41.9817C404.601 40.2685 405.997 38.8816 407.722 38.8816C409.448 38.8816 410.844 40.2685 410.844 41.9817C410.844 43.6949 409.448 45.0818 407.722 45.0818ZM442.86 32.0016C442.455 33.6713 440.763 34.6938 439.081 34.2913C437.4 33.8888 436.371 32.2083 436.776 30.5386C437.181 28.8689 438.873 27.8464 440.555 28.2488C442.236 28.6513 443.266 30.3319 442.86 32.0016Z" fill="#413124"/>
</g>
<defs>
<clipPath id="clip0_164_550">
<rect width="457" height="67" fill="white"/>
</clipPath>
</defs>
</svg>
