<svg width="110" height="46" viewBox="0 0 110 46" fill="none" xmlns="http://www.w3.org/2000/svg">
<g clip-path="url(#clip0_415_623)">
<path d="M64.4542 43.9136C65.2386 43.8714 65.8857 43.4561 66.1821 42.7368H68.8113C68.2367 44.7367 66.4894 45.9773 64.477 45.9968C63.0769 46.0098 61.7602 45.5576 60.8124 44.5171C60.3385 43.9568 59.9793 43.3544 59.7834 42.633C59.038 39.8878 60.0399 36.7457 62.9427 35.9983C63.9847 35.7301 65.0471 35.7647 66.0631 36.0978C68.4282 36.9664 69.3295 39.2475 68.9844 41.6714H62.0209C62.0999 43.031 63.0542 43.9882 64.4542 43.9147V43.9136ZM66.5424 39.9754C66.524 39.3914 66.3487 38.9674 66.0101 38.5812C65.2343 37.8035 63.9912 37.637 63.0466 38.2265C62.4375 38.6061 62.1237 39.2616 62.0328 39.9808L66.5424 39.9754Z" fill="white"/>
<path d="M15.9535 42.74L18.5826 42.7346C17.8004 45.311 15.3011 46.49 12.7347 45.8118C9.68142 45.0038 8.69252 41.5654 9.66844 38.804C10.5329 36.3574 13.0387 35.3948 15.4893 35.994C18.0655 36.7133 19.115 39.0863 18.7547 41.6692H11.7923C11.7934 42.0478 11.9135 42.4199 12.0823 42.7735C12.5096 43.561 13.3244 43.9655 14.217 43.9157C14.9765 43.8736 15.6224 43.4896 15.9524 42.74H15.9535ZM16.3062 39.9765C16.303 39.1783 15.9178 38.5812 15.3011 38.2016C14.5902 37.8122 13.7268 37.7505 12.9922 38.1248C12.29 38.4828 11.8929 39.1912 11.8031 39.9819L16.3062 39.9765Z" fill="white"/>
<path d="M6.74062 40.6233C6.13472 40.9056 5.52342 41.057 4.86668 41.0603L2.43985 41.0722V45.8172L0.0270996 45.8237V33.4133L4.55183 33.4252C5.399 33.4273 6.18666 33.5852 6.92131 33.9681C8.54748 34.8172 9.12957 36.723 8.63079 38.4298C8.34191 39.4184 7.69057 40.1798 6.74062 40.6244V40.6233ZM5.32326 35.6176C5.08848 35.5408 4.84828 35.4748 4.59511 35.4737L2.44094 35.4629L2.44526 39.0528L4.76064 39.0268C5.31569 39.0204 5.84043 38.7262 6.0882 38.2329C6.5318 37.3525 6.33813 35.9529 5.32434 35.6187L5.32326 35.6176Z" fill="white"/>
<path d="M45.1067 42.9217C44.3753 44.8967 42.4537 46.0443 40.332 45.9903C37.5579 45.92 35.7132 43.8692 35.6309 41.1349C35.6104 40.4643 35.6796 39.837 35.8711 39.1977C36.3872 37.479 37.7786 36.2276 39.5487 35.9139C41.9582 35.4878 44.2833 36.604 45.1229 38.9208C45.5903 40.2112 45.5816 41.6357 45.1056 42.9217H45.1067ZM40.3017 43.8011C41.4269 43.8692 42.3726 43.2494 42.7458 42.2154C43.0499 41.3718 43.0477 40.4308 42.7513 39.5795C42.4094 38.6018 41.5081 38.0025 40.5149 38.0025C39.5368 38.0025 38.6409 38.5877 38.3098 39.5579C38.0047 40.4502 38.0058 41.4421 38.3326 42.3279C38.6442 43.1727 39.3918 43.7459 40.3039 43.8011H40.3017Z" fill="white"/>
<path d="M31.5464 43.6205C31.9759 43.3587 32.2616 42.9877 32.4022 42.5032H35.0292C34.591 44.2619 33.3911 45.536 31.6135 45.8908C29.4096 46.2996 27.3008 45.4808 26.3249 43.4312C25.5881 41.8834 25.6119 39.6834 26.4331 38.168C27.0877 36.961 28.2118 36.14 29.5718 35.9053C31.5605 35.5624 33.5578 36.2038 34.5445 38.0209C34.7663 38.4384 34.921 38.8581 35.0227 39.3048H32.4033C32.1566 38.4698 31.4631 37.9874 30.6246 37.9485C29.6855 37.9052 28.8848 38.3984 28.5462 39.3059C28.1924 40.2545 28.1869 41.3339 28.4791 42.3128C28.6565 42.9077 29.0536 43.3663 29.5827 43.6551C30.2156 43.9233 30.9026 43.9125 31.5475 43.6183L31.5464 43.6205Z" fill="white"/>
<path d="M49.0915 45.8205L46.6787 45.8237V35.9832L49.0936 35.9821L49.1109 37.4531C49.7926 36.4245 50.7458 35.8339 52.0257 35.8415V38.4676L50.947 38.4828C50.4374 38.5574 49.9289 38.6959 49.5892 39.1025C49.2494 39.5092 49.1142 40.01 49.112 40.5443L49.0915 45.8194V45.8205Z" fill="white"/>
<path d="M55.8417 45.8205L53.429 45.8237V35.9832L55.8439 35.9821L55.8612 37.4531C56.5428 36.4245 57.496 35.8339 58.776 35.8415V38.4676L57.6973 38.4839C57.1866 38.5585 56.6791 38.6969 56.3394 39.1047C55.9997 39.5125 55.8644 40.0122 55.8623 40.5454L55.8417 45.8205Z" fill="white"/>
<path d="M22.4311 45.8075L20.0183 45.8259V35.9886L22.4321 35.9864L22.4343 37.491C23.0478 36.4569 24.1297 35.8155 25.3632 35.8447L25.3707 38.4796L24.2239 38.4958C22.9439 38.6753 22.5046 39.4097 22.4365 40.672L22.4311 45.8086V45.8075Z" fill="white"/>
<path d="M31.1689 30.8271C29.6509 30.8336 28.5581 29.7141 28.5256 28.2269C28.5062 27.3443 28.7734 26.4779 29.5091 25.922C30.4786 25.1887 31.8689 25.1811 32.847 25.9025C33.5686 26.4347 33.8586 27.261 33.8618 28.1263C33.8672 29.6546 32.7225 30.8228 31.1689 30.8282V30.8271ZM30.9752 30.031C31.9511 30.1197 32.7615 29.487 32.9108 28.5471C32.9768 28.1274 32.9638 27.724 32.834 27.3248C32.5851 26.558 31.8927 26.1113 31.0866 26.1491C30.3282 26.1848 29.7169 26.6575 29.5232 27.4006C29.3934 27.897 29.3999 28.4357 29.5632 28.9256C29.7731 29.5562 30.2968 29.9683 30.9763 30.03L30.9752 30.031Z" fill="white"/>
<path d="M25.0494 25.472L25.0581 30.7406H24.159L24.1222 30.0365C23.6591 30.6584 22.9147 30.8855 22.1498 30.7958C21.1814 30.6833 20.4111 29.9672 20.3516 28.9494L20.3213 25.4775H21.1836L21.1998 28.5979C21.2042 29.4935 21.8501 30.083 22.734 30.044C23.4698 30.0116 24.1146 29.5292 24.1211 28.7342L24.1492 25.4785L25.0483 25.4699L25.0494 25.472Z" fill="white"/>
<path d="M4.22171 26.134C3.36697 26.1167 2.70265 26.6683 2.69616 27.5228L2.67127 30.7341L1.79272 30.7319V25.4785L2.67776 25.4764L2.69616 26.1643C3.37779 25.1724 5.03101 25.1065 5.89116 25.9188C6.27309 26.2789 6.49922 26.7905 6.50247 27.327L6.5241 30.7352L5.64123 30.733L5.61635 27.4471C5.61094 26.6683 4.99531 26.1491 4.22279 26.1329L4.22171 26.134Z" fill="white"/>
<path d="M10.4939 30.5751C9.71058 30.9569 8.76928 30.8996 8.03464 30.4778C7.56723 30.2095 7.27294 29.752 7.23291 29.1993L8.14283 29.1831C8.20234 29.527 8.39493 29.8039 8.72168 29.9402C9.36436 30.2084 10.2526 30.0549 10.4052 29.5249C10.4723 29.2945 10.4604 29.05 10.2829 28.8954C10.0665 28.7061 9.77117 28.6271 9.49636 28.546L8.49122 28.2486C8.10713 28.135 7.73277 27.9187 7.52396 27.5585C7.08685 26.8057 7.44822 25.909 8.24454 25.5791C8.89371 25.3098 9.62944 25.2882 10.284 25.5694C10.8823 25.8268 11.261 26.3968 11.2632 27.0253L10.3781 27.0274C10.3554 26.6672 10.1509 26.3795 9.81878 26.24C9.18475 25.9739 8.30621 26.1859 8.23263 26.7603C8.15473 27.367 8.76712 27.5325 9.33947 27.7142L10.3684 28.0409C10.6919 28.1436 10.9981 28.3762 11.1647 28.6899C11.5337 29.3799 11.2318 30.2171 10.4939 30.5762V30.5751Z" fill="white"/>
<path d="M14.5805 29.9824L14.5859 30.7362L13.5884 30.7298C13.2335 30.7276 12.8732 30.601 12.6297 30.3382C12.3863 30.0754 12.3214 29.7033 12.3203 29.342L12.303 26.2043L11.6311 26.1967V25.4785L12.2998 25.4709L12.3062 24.146H13.2151L13.2216 25.4709H14.587L14.5957 26.2032L13.2162 26.201L13.2183 29.4275C13.2183 29.7433 13.4347 29.9672 13.7344 29.9715L14.5805 29.9824Z" fill="white"/>
<path d="M28.5992 29.9834L28.6057 30.7373L27.4155 30.7103C26.8259 30.6357 26.3671 30.1998 26.3639 29.5811L26.3487 26.2075L25.6595 26.1891L25.6509 25.4796L26.352 25.472L26.3563 24.146H27.2349L27.2403 25.472L28.6057 25.4742L28.6079 26.201H27.2338L27.2424 29.4253C27.2424 29.7357 27.4556 29.9596 27.752 29.9661L28.5992 29.9845V29.9834Z" fill="white"/>
<path d="M19.6688 29.9824L19.6763 30.7384L18.5825 30.7211C17.9495 30.7114 17.4367 30.242 17.4345 29.5789L17.4194 26.2075L16.754 26.1989L16.7507 25.4753L17.4215 25.4699L17.4259 24.1449H18.3044L18.3087 25.4699L19.6753 25.472V26.1978L18.3033 26.2L18.312 29.4232C18.312 29.7336 18.5262 29.9532 18.8238 29.9629L19.6698 29.9824H19.6688Z" fill="white"/>
<path d="M0.885038 30.7179L0 30.7298V24.0302L0.883956 24.0259L0.885038 30.7179Z" fill="white"/>
<path d="M16.1255 30.7265L15.2405 30.733V25.4785L16.1244 25.4796L16.1255 30.7265Z" fill="white"/>
<path d="M15.5099 23.4397C15.8691 23.338 16.1623 23.5576 16.2489 23.8485C16.343 24.1655 16.1569 24.5072 15.881 24.5905C15.5424 24.6922 15.234 24.517 15.1226 24.2347C15.0025 23.9275 15.1648 23.5381 15.5099 23.4408V23.4397Z" fill="white"/>
<path d="M85.4408 23.9653L88.1024 26.5742L90.75 29.1701L93.3986 31.766L96.0461 34.3618L98.6948 36.9577L101.342 39.5536L103.991 42.1495L106.634 44.7443L107.813 45.9275L75.4944 45.9156L57.3468 0.131965C57.3263 0.0811292 57.309 0.0378646 57.3187 0.0205587C57.3349 -0.00864489 57.4215 0.00325288 57.4669 0.00325288H60.9854L61.6249 0.619773L64.2692 3.21132L66.9178 5.8072L69.5653 8.40307L72.214 10.9989L74.8626 13.5948L77.5112 16.1907L80.1598 18.7866L82.8074 21.3825L85.4419 23.9653H85.4408Z" fill="#FFA300"/>
<path d="M106.654 11.9194C108.065 13.1752 109.533 14.8225 109.923 16.6958C110.155 17.8066 109.856 18.9012 109.103 19.7535C106.911 22.2359 101.637 22.742 98.4047 22.861L96.494 22.9043L63.4014 0.0281366L65.245 0.0184021C70.8809 0.117911 76.4973 0.6598 82.0542 1.72844C87.9228 2.85764 94.0401 4.65096 99.4034 7.27279C101.909 8.49826 104.577 10.0731 106.652 11.9194H106.654Z" fill="#FFA300"/>
</g>
<defs>
<clipPath id="clip0_415_623">
<rect width="110" height="46" fill="white"/>
</clipPath>
</defs>
</svg>
